<svg width="531" height="653" viewBox="0 0 531 653" fill="none" xmlns="http://www.w3.org/2000/svg">
<path d="M386.074 562.374C356.318 541.592 349.577 503.014 350.752 468.327C350.944 462.549 350.309 456.424 353.063 451.359C355.817 446.294 362.25 442.808 367.431 445.234C371.726 447.257 373.594 452.264 376.002 456.405C379.214 461.921 383.921 466.414 389.58 469.367C393.258 471.293 397.823 472.449 401.463 470.446C406.471 467.692 407.049 460.816 407.01 455.038C407.01 444.291 406.946 433.556 406.818 422.835C406.471 417.078 407.057 411.303 408.551 405.732C410.342 400.262 414.329 395.197 419.779 393.656C425.23 392.115 432.029 395.293 433.261 400.917C433.474 403.299 433.532 405.692 433.435 408.082C433.589 410.489 434.706 413.128 436.959 413.86C439.213 414.592 441.563 412.916 443.296 411.221C449.228 405.443 453.273 397.913 457.028 390.478C460.784 383.044 464.463 375.398 469.855 369.061C475.248 362.725 482.702 357.698 491.041 357.216C499.381 356.735 508.067 361.858 510.147 369.947C512.227 378.036 507.509 386.299 502.443 392.866C494.8 402.615 485.79 411.21 475.691 418.386C473.72 419.462 472.147 421.143 471.204 423.182C469.952 427.034 473.592 430.886 477.386 432.099C481.681 433.524 486.342 433.081 490.868 433.621C495.394 434.16 500.209 436.124 501.923 440.362C504.273 446.255 499.343 452.418 494.508 456.463C484.801 464.552 473.779 470.917 461.92 475.28C457.683 476.821 453.234 478.188 449.806 481.154C446.378 484.12 444.336 489.301 446.397 493.365C448.458 497.429 453.754 498.719 458.203 497.891C462.652 497.063 466.601 494.675 470.838 493.076C478.754 490.091 488.961 490.63 493.95 497.468C495.495 499.823 496.473 502.504 496.808 505.301C497.142 508.099 496.823 510.935 495.876 513.588C493.948 518.868 490.981 523.708 487.151 527.821C474.536 542.893 458.146 554.345 439.656 561.006C421.301 567.362 404.294 569.095 386.055 562.412" fill="#44C0A5"/>
<path d="M501.673 361.973C501.673 361.973 501.5 362.166 501.114 362.513L499.4 364.034C497.898 365.382 495.683 367.347 492.89 369.947C484.972 377.299 477.62 385.237 470.895 393.695C466.6 399.03 462.151 405.077 457.413 411.645C452.675 418.213 447.783 425.3 442.93 432.831C437.755 440.772 433.017 448.989 428.735 457.445C426.501 461.856 424.537 466.459 422.514 471.158L416.544 485.507C408.674 503.581 401.819 522.08 396.013 540.918C391.335 556.331 388.111 572.149 386.383 588.163C385.262 598.97 385.082 609.854 385.843 620.693C386.151 624.545 386.44 627.492 386.71 629.495C386.826 630.458 386.903 631.228 386.98 631.787V632.576C386.897 632.326 386.839 632.068 386.806 631.806C386.71 631.248 386.594 630.496 386.44 629.533C386.094 627.607 385.728 624.564 385.381 620.712C384.452 609.854 384.516 598.933 385.574 588.086C387.195 572.003 390.349 556.112 394.992 540.629C400.75 521.738 407.585 503.192 415.465 485.083L421.59 470.792C423.612 466.112 425.596 461.471 427.849 457.041C432.161 448.559 436.938 440.322 442.16 432.369C447.09 424.665 452.059 417.693 456.739 411.183C461.42 404.673 465.946 398.587 470.221 393.271C477.014 384.836 484.465 376.953 492.505 369.697C495.356 367.135 497.628 365.209 499.169 363.919L500.96 362.474C501.18 362.283 501.419 362.115 501.673 361.973Z" fill="#263238"/>
<path d="M428.1 457.002C427.828 456.209 427.641 455.389 427.541 454.556C427.233 452.958 426.887 450.704 426.482 447.777C425.654 441.999 424.807 434.083 423.901 425.32C422.996 416.556 421.975 408.621 421.128 402.901C420.685 400.05 420.3 397.759 420.03 396.16C419.82 395.342 419.71 394.501 419.703 393.656C420.034 394.428 420.273 395.236 420.415 396.064C420.839 397.643 421.32 399.916 421.86 402.785C422.958 408.563 424.036 416.421 424.941 425.204C425.846 433.987 426.617 441.691 427.214 447.68C427.503 450.377 427.753 452.669 427.946 454.499C428.096 455.324 428.147 456.165 428.1 457.002Z" fill="#263238"/>
<path d="M502.212 443.174C501.275 443.378 500.321 443.494 499.362 443.52C497.436 443.694 494.701 443.925 491.311 444.31C484.532 445.042 475.21 446.39 464.983 448.316C454.756 450.242 445.569 452.418 438.963 454.094C435.669 454.941 433.011 455.712 431.259 456.232C430.323 456.564 429.354 456.797 428.37 456.925C429.26 456.478 430.188 456.11 431.143 455.827C432.953 455.192 435.573 454.306 438.847 453.362C445.415 451.436 454.602 449.144 464.867 447.18C473.563 445.517 482.338 444.296 491.157 443.52C494.566 443.231 497.32 443.116 499.246 443.077C500.236 443.01 501.229 443.042 502.212 443.174Z" fill="#263238"/>
<path d="M395.935 539.281C395.73 539.002 395.562 538.698 395.435 538.376L394.164 535.699C393.066 533.368 391.583 529.921 389.811 525.703C386.228 517.228 381.664 505.364 376.81 492.19C371.957 479.016 367.489 467.152 364.099 458.582C362.442 454.422 361.075 451.012 360.054 448.47L358.976 445.716C358.826 445.398 358.722 445.061 358.667 444.714C358.873 444.993 359.041 445.298 359.168 445.62L360.439 448.297C361.518 450.627 363.02 454.075 364.792 458.293C368.374 466.767 372.939 478.631 377.793 491.805C382.646 504.979 387.114 516.843 390.504 525.414C392.161 529.574 393.528 532.983 394.53 535.525C394.973 536.623 395.338 537.451 395.627 538.279C395.777 538.597 395.881 538.934 395.935 539.281Z" fill="#263238"/>
<path d="M494.316 507.56C494.007 507.737 493.677 507.873 493.334 507.964L490.483 508.927L479.948 512.336C471.05 515.225 458.762 519.347 445.28 523.892C431.798 528.438 419.452 532.482 410.496 535.179C406.028 536.546 402.388 537.586 399.865 538.28L396.957 539.031C396.618 539.138 396.27 539.209 395.917 539.243C396.225 539.066 396.555 538.93 396.899 538.838L399.749 537.875L410.284 534.466C419.183 531.577 431.47 527.455 444.952 522.91C458.434 518.365 470.761 514.32 479.717 511.624C484.204 510.256 487.825 509.216 490.367 508.523L493.276 507.772C493.614 507.664 493.963 507.593 494.316 507.56Z" fill="#263238"/>
<path d="M474.786 44.3906L463.057 48.2873L458.023 34.0344C448.776 7.75233 419.305 -6.20409 392.224 2.66957C365.144 11.5432 350.727 40.3667 359.974 66.6488L365.007 80.9017L353.232 84.8197C348.742 86.4391 345.096 89.6051 343.052 93.6597C341.007 97.7143 340.722 102.346 342.254 106.591L374.892 199.33C375.569 201.432 376.694 203.385 378.2 205.074C379.705 206.764 381.56 208.155 383.655 209.164C385.75 210.174 388.042 210.781 390.394 210.951C392.747 211.121 395.112 210.849 397.349 210.152L518.903 169.723C523.452 168.106 527.15 164.912 529.219 160.812C531.287 156.713 531.565 152.027 529.995 147.74L497.334 55.0008C496.639 52.9051 495.497 50.9611 493.976 49.2848C492.456 47.6085 490.587 46.2342 488.483 45.2439C486.379 44.2537 484.081 43.6678 481.728 43.5212C479.375 43.3745 477.014 43.6702 474.786 44.3906V44.3906ZM382.135 59.2153C379.641 52.3815 380.089 44.9157 383.384 38.382C386.678 31.8483 392.564 26.7536 399.809 24.1654C403.386 23.0274 407.173 22.571 410.944 22.8235C414.715 23.0761 418.392 24.0324 421.757 25.6353C425.122 27.2383 428.105 29.4551 430.529 32.1534C432.952 34.8518 434.766 37.9764 435.863 41.3409L440.873 55.5938L387.145 73.4682L382.135 59.2153ZM450.462 141.514L458.798 165.191C458.951 165.666 458.901 166.177 458.66 166.619C458.418 167.06 458.002 167.398 457.499 167.563L445.816 171.438C445.351 171.558 444.854 171.506 444.429 171.293C444.005 171.08 443.685 170.722 443.538 170.295L435.134 146.723C430.5 146.489 426.053 144.943 422.39 142.294C418.727 139.644 416.021 136.017 414.636 131.899C412.655 126.454 413.016 120.507 415.644 115.304C418.272 110.101 422.962 106.046 428.734 103.986C431.583 103.081 434.6 102.718 437.603 102.92C440.607 103.121 443.536 103.883 446.216 105.16C448.896 106.437 451.272 108.202 453.203 110.351C455.133 112.499 456.579 114.988 457.454 117.667C458.919 121.851 459.041 126.341 457.803 130.588C456.565 134.835 454.021 138.654 450.485 141.577L450.462 141.514Z" fill="#44C0A5"/>
<path d="M462.533 48.0332C462.533 48.3297 440.782 55.9327 413.724 64.9758C386.667 74.0188 364.597 81.2829 364.483 81.0712C364.369 80.8594 386.234 73.1929 413.314 64.1286C440.395 55.0644 462.419 47.7579 462.533 48.0332Z" fill="#263238"/>
<path d="M488.361 51.93C488.461 52.1138 488.545 52.3051 488.611 52.5018C488.793 52.9254 488.998 53.476 489.272 54.1537C489.864 55.6997 490.684 57.8387 491.709 60.5072L500.455 84.1844C504.099 94.2228 508.449 106.125 513.277 119.34C515.555 125.969 518.242 132.873 520.748 140.137C522.089 143.88 522.668 147.823 522.456 151.764C522.263 153.813 521.636 155.807 520.611 157.63C519.517 159.447 518.055 161.051 516.306 162.353C512.788 164.741 508.882 166.593 504.736 167.838L493.007 171.756L470.801 179.147L433.198 191.6L407.803 199.902L400.97 202.02L399.148 202.57C398.953 202.651 398.746 202.701 398.533 202.719C398.533 202.719 398.715 202.719 399.103 202.464L400.879 201.808L407.712 199.415L432.97 190.774L470.505 178.067L492.665 170.612L504.395 166.673C508.423 165.479 512.215 163.684 515.623 161.358C517.25 160.15 518.611 158.661 519.632 156.974C520.596 155.287 521.178 153.435 521.34 151.531C521.55 147.734 520.993 143.934 519.7 140.328C517.24 133.127 514.644 126.159 512.298 119.531C507.561 106.294 503.188 94.3499 499.726 84.3114C496.264 74.273 493.349 66.2041 491.344 60.5283C490.388 57.754 489.659 55.5938 489.067 54.0267L488.52 52.3324C488.451 52.2041 488.398 52.0691 488.361 51.93V51.93Z" fill="#263238"/>
<path d="M424.224 22.7253C424.224 22.7253 423.017 22.1747 420.785 21.3276C417.604 20.1909 414.239 19.5608 410.832 19.4639C405.783 19.3029 400.758 20.1853 396.119 22.0476C390.478 24.3666 385.655 28.1174 382.203 32.8697C378.728 37.6083 376.863 43.2083 376.851 48.9439C376.898 53.6449 377.665 58.3156 379.128 62.8156C380.313 66.67 381.543 69.7409 382.363 71.8798C382.846 72.9663 383.242 74.0848 383.547 75.226C382.9 74.2102 382.358 73.1394 381.93 72.0281C380.996 69.9103 379.652 66.903 378.331 63.0274C376.71 58.4801 375.827 53.7334 375.712 48.9439C375.651 42.9916 377.56 37.1658 381.178 32.2555C384.751 27.3297 389.771 23.4628 395.641 21.1158C400.424 19.2433 405.606 18.4173 410.787 18.7015C414.267 18.8664 417.686 19.6199 420.876 20.9252C421.729 21.291 422.551 21.7158 423.336 22.1959C423.66 22.3282 423.96 22.5068 424.224 22.7253V22.7253Z" fill="#263238"/>
<path d="M425.272 105.595C425.635 105.391 426.016 105.214 426.41 105.066C427.551 104.588 428.731 104.198 429.941 103.901C431.86 103.374 433.841 103.062 435.84 102.969C438.559 102.834 441.279 103.215 443.834 104.092C449.665 105.998 455.017 111.525 457.659 118.917C458.926 122.883 458.926 127.106 457.659 131.073C456.254 135.378 453.736 139.297 450.325 142.488L450.462 141.916C453.491 149.646 456.793 158.033 460.21 166.779L460.415 167.309L459.845 167.499L454.63 169.109L443.242 172.646L442.672 172.815L442.49 172.286C439.37 163.518 435.953 155.343 433.38 147.316L433.881 147.677C429.428 147.333 425.183 145.779 421.673 143.208C418.498 140.934 415.894 138.043 414.043 134.737C412.373 131.805 411.542 128.523 411.629 125.206C411.734 121.817 412.645 118.491 414.294 115.466C415.944 112.442 418.293 109.795 421.172 107.713C422.357 106.819 423.687 106.104 425.112 105.595C423.826 106.305 422.579 107.076 421.377 107.904C418.214 110.392 415.791 113.593 414.339 117.201C413.093 119.922 412.51 122.865 412.632 125.82C412.755 128.775 413.579 131.668 415.045 134.292C416.865 137.472 419.406 140.247 422.493 142.424C425.841 144.868 429.889 146.341 434.131 146.66H434.519L434.633 146.978C437.138 154.856 440.577 163.094 443.743 171.904L442.991 171.565L454.379 168.029L459.572 166.398L459.208 167.118C455.814 158.371 452.534 149.964 449.528 142.234V141.916L449.801 141.662C453.112 138.604 455.581 134.848 456.998 130.713C458.206 126.919 458.206 122.88 456.998 119.086C454.516 111.97 449.391 106.57 443.834 104.664C441.374 103.782 438.748 103.371 436.113 103.456C434.146 103.498 432.19 103.747 430.282 104.198C426.889 104.981 425.294 105.701 425.272 105.595Z" fill="#263238"/>
<path d="M352.774 652.145L160.386 651.259C149.275 651.197 138.644 646.729 130.825 638.835C123.007 630.941 118.642 620.267 118.688 609.156L120.729 126.867C120.752 121.362 121.859 115.916 123.988 110.84C126.117 105.764 129.225 101.157 133.135 97.2826C137.045 93.4083 141.68 90.3425 146.776 88.2607C151.871 86.1788 157.327 85.1216 162.832 85.1495L355.201 86.0354C366.311 86.0915 376.945 90.5549 384.767 98.4454C392.588 106.336 396.959 117.008 396.918 128.119L394.876 610.389C394.854 615.895 393.746 621.343 391.618 626.421C389.49 631.5 386.383 636.109 382.473 639.987C378.563 643.864 373.928 646.933 368.833 649.019C363.737 651.105 358.28 652.167 352.774 652.145Z" fill="#455A64"/>
<path d="M354.912 102.618H317.624C316.408 102.641 315.207 102.903 314.092 103.389C312.977 103.876 311.968 104.577 311.124 105.454C310.28 106.33 309.616 107.364 309.172 108.497C308.728 109.63 308.511 110.839 308.534 112.056V118.816C308.557 120.032 308.339 121.24 307.895 122.372C307.45 123.503 306.787 124.536 305.942 125.411C305.098 126.286 304.089 126.986 302.974 127.47C301.858 127.954 300.659 128.214 299.443 128.234L226.756 127.907C224.297 127.841 221.964 126.802 220.271 125.018C218.577 123.234 217.661 120.851 217.723 118.392V111.632C217.785 109.176 216.871 106.796 215.182 105.012C213.492 103.229 211.165 102.188 208.709 102.118H195.593L162.947 101.963C155.182 101.917 147.716 104.95 142.182 110.397C136.648 115.844 133.498 123.262 133.422 131.027L131.496 601.78C131.478 605.632 132.219 609.45 133.677 613.015C135.135 616.581 137.28 619.824 139.992 622.561C142.703 625.297 145.927 627.473 149.479 628.963C153.031 630.454 156.842 631.23 160.694 631.247L352.678 632.133C356.532 632.151 360.352 631.41 363.92 629.951C367.488 628.492 370.734 626.345 373.472 623.632C376.21 620.919 378.387 617.693 379.879 614.138C381.37 610.584 382.147 606.771 382.165 602.916L384.091 132.163C384.137 124.377 381.089 116.89 375.617 111.35C370.146 105.81 362.698 102.669 354.912 102.618Z" fill="white"/>
<path d="M329.413 569.327L186.658 568.71C185.175 568.71 183.981 567.092 184 565.128L184.154 527.783C184.154 525.857 185.368 524.2 186.851 524.2L329.606 524.855C330.428 524.997 331.163 525.451 331.658 526.122C332.153 526.793 332.37 527.63 332.264 528.457L332.129 565.764C332.129 567.747 330.896 569.346 329.413 569.327Z" fill="#44C0A5"/>
<path d="M241.496 551.049C241.073 551.049 240.667 550.981 240.277 550.846C239.892 550.71 239.594 550.531 239.382 550.309L239.618 549.845C239.824 550.051 240.098 550.219 240.439 550.349C240.781 550.474 241.133 550.537 241.496 550.537C242.006 550.537 242.388 550.444 242.643 550.26C242.898 550.07 243.025 549.826 243.025 549.528C243.025 549.301 242.955 549.119 242.814 548.983C242.678 548.848 242.51 548.745 242.309 548.674C242.109 548.599 241.83 548.517 241.472 548.431C241.044 548.322 240.702 548.219 240.447 548.122C240.193 548.019 239.973 547.864 239.789 547.658C239.61 547.452 239.52 547.173 239.52 546.821C239.52 546.533 239.596 546.273 239.748 546.04C239.9 545.801 240.133 545.612 240.447 545.471C240.762 545.33 241.152 545.259 241.618 545.259C241.944 545.259 242.261 545.305 242.57 545.398C242.884 545.484 243.155 545.606 243.383 545.763L243.179 546.243C242.941 546.086 242.686 545.969 242.415 545.894C242.144 545.812 241.878 545.772 241.618 545.772C241.12 545.772 240.743 545.869 240.488 546.064C240.239 546.254 240.114 546.501 240.114 546.804C240.114 547.032 240.182 547.216 240.317 547.357C240.458 547.493 240.632 547.598 240.838 547.674C241.049 547.745 241.331 547.823 241.683 547.91C242.101 548.013 242.437 548.116 242.692 548.219C242.952 548.317 243.171 548.468 243.35 548.674C243.529 548.875 243.619 549.149 243.619 549.496C243.619 549.783 243.54 550.046 243.383 550.284C243.231 550.518 242.995 550.705 242.675 550.846C242.356 550.981 241.962 551.049 241.496 551.049ZM244.93 545.308H245.531V551H244.93V545.308ZM252.14 545.308V551H251.644L247.985 546.381V551H247.383V545.308H247.879L251.547 549.927V545.308H252.14ZM258.007 548.154H258.584V550.325C258.318 550.558 258.004 550.737 257.641 550.862C257.278 550.986 256.895 551.049 256.494 551.049C255.925 551.049 255.413 550.924 254.957 550.675C254.502 550.425 254.144 550.081 253.884 549.642C253.624 549.198 253.494 548.702 253.494 548.154C253.494 547.607 253.624 547.113 253.884 546.674C254.144 546.23 254.502 545.883 254.957 545.633C255.413 545.384 255.928 545.259 256.502 545.259C256.936 545.259 257.334 545.33 257.698 545.471C258.061 545.606 258.367 545.81 258.616 546.081L258.242 546.463C257.793 546.018 257.221 545.796 256.527 545.796C256.066 545.796 255.649 545.899 255.275 546.105C254.906 546.306 254.616 546.587 254.404 546.951C254.193 547.308 254.087 547.71 254.087 548.154C254.087 548.599 254.193 549 254.404 549.357C254.616 549.715 254.906 549.997 255.275 550.203C255.643 550.409 256.058 550.512 256.519 550.512C257.104 550.512 257.6 550.366 258.007 550.073V548.154ZM264.708 551.049C263.971 551.049 263.396 550.837 262.984 550.415C262.572 549.992 262.366 549.376 262.366 548.569V545.308H262.968V548.544C262.968 549.206 263.117 549.699 263.415 550.024C263.713 550.349 264.144 550.512 264.708 550.512C265.277 550.512 265.711 550.349 266.009 550.024C266.307 549.699 266.456 549.206 266.456 548.544V545.308H267.042V548.569C267.042 549.376 266.836 549.992 266.424 550.415C266.017 550.837 265.445 551.049 264.708 551.049ZM270.985 545.308C271.712 545.308 272.281 545.482 272.693 545.829C273.105 546.175 273.311 546.652 273.311 547.26C273.311 547.867 273.105 548.344 272.693 548.691C272.281 549.032 271.712 549.203 270.985 549.203H269.457V551H268.855V545.308H270.985ZM270.969 548.674C271.533 548.674 271.964 548.552 272.262 548.309C272.56 548.059 272.709 547.71 272.709 547.26C272.709 546.799 272.56 546.446 272.262 546.203C271.964 545.953 271.533 545.829 270.969 545.829H269.457V548.674H270.969Z" fill="#E8E8E3"/>
<path d="M214.803 241.002L165.267 240.777L165.226 249.868L214.762 250.092L214.803 241.002Z" fill="#44C0A5"/>
<path opacity="0.1" d="M214.803 241.002L165.267 240.777L165.226 249.868L214.762 250.092L214.803 241.002Z" fill="black"/>
<path d="M360.016 296.817C360.405 296.778 360.787 296.687 361.152 296.547C361.685 296.339 362.149 295.984 362.489 295.524C362.83 295.064 363.034 294.518 363.078 293.947C363.078 290.885 363.078 286.416 363.078 280.677C363.078 277.807 363.078 274.591 363.078 271.047C363.078 270.18 363.078 269.275 363.078 268.37C363.204 267.491 363.012 266.597 362.539 265.847C362.274 265.487 361.929 265.194 361.531 264.99C361.133 264.786 360.694 264.677 360.247 264.672H357.242H329.412L168.321 264.075C167.909 264.068 167.501 264.161 167.132 264.345C166.763 264.529 166.444 264.8 166.202 265.134C165.737 265.888 165.559 266.783 165.702 267.657C165.702 269.583 165.702 271.509 165.702 273.435C165.702 277.287 165.702 281.139 165.702 284.991C165.702 286.917 165.702 288.843 165.702 290.769C165.622 291.666 165.622 292.569 165.702 293.466C165.803 293.85 165.991 294.206 166.251 294.507C166.512 294.807 166.838 295.044 167.204 295.199C167.583 295.35 167.99 295.422 168.398 295.411H178.201L220.978 295.642L293.395 296.085L342.219 296.47L355.49 296.624H358.937C359.727 296.624 360.112 296.624 360.112 296.624H358.937H355.49H342.219H293.395L220.978 296.393L178.201 296.22H168.398C167.858 296.242 167.32 296.15 166.819 295.95C166.312 295.734 165.861 295.404 165.5 294.987C165.14 294.57 164.879 294.076 164.739 293.543C164.627 293.037 164.588 292.518 164.623 292.002V290.577C164.623 288.651 164.623 286.725 164.623 284.799C164.623 280.947 164.623 277.095 164.623 273.243C164.623 271.317 164.623 269.391 164.623 267.465C164.586 266.952 164.586 266.437 164.623 265.924C164.695 265.357 164.914 264.819 165.259 264.364C165.591 263.899 166.031 263.521 166.54 263.263C167.05 263.005 167.615 262.874 168.186 262.881L329.277 263.767L357.107 263.959H360.112C360.641 263.96 361.163 264.088 361.632 264.332C362.102 264.577 362.505 264.932 362.808 265.365C363.351 266.203 363.571 267.209 363.425 268.197C363.425 269.102 363.425 270.007 363.425 270.874C363.425 274.379 363.425 277.595 363.425 280.504C363.425 286.282 363.29 290.711 363.251 293.793C363.204 294.386 362.989 294.952 362.631 295.427C362.272 295.901 361.786 296.263 361.229 296.47C360.865 296.696 360.444 296.816 360.016 296.817Z" fill="#E0E0E0"/>
<path d="M270.746 273.743H180.146V282.237H270.746V273.743Z" fill="#44C0A5"/>
<path opacity="0.2" d="M270.746 273.743H180.146V282.237H270.746V273.743Z" fill="white"/>
<path d="M214.465 323.933L164.929 323.708L164.888 332.799L214.424 333.024L214.465 323.933Z" fill="#44C0A5"/>
<path opacity="0.1" d="M214.465 323.933L164.929 323.708L164.888 332.799L214.424 333.024L214.465 323.933Z" fill="black"/>
<path d="M358.764 379.75C359.153 379.703 359.539 379.632 359.92 379.539C360.457 379.367 360.952 379.083 361.371 378.704C361.79 378.325 362.122 377.861 362.346 377.343C362.65 376.565 362.768 375.728 362.693 374.897C362.693 373.972 362.693 372.971 362.693 371.854C362.693 369.62 362.693 367.077 362.693 364.15V351.92C362.785 351.034 362.589 350.143 362.134 349.377C361.659 348.592 360.912 348.01 360.035 347.74C359.076 347.569 358.099 347.517 357.127 347.586H329.412L168.879 346.989C168.016 346.991 167.183 347.307 166.534 347.877C165.886 348.447 165.467 349.234 165.355 350.09C165.355 351.92 165.355 353.942 165.355 355.868C165.355 359.72 165.355 363.572 165.355 367.424C165.355 369.35 165.355 371.276 165.355 373.202C165.283 374.102 165.322 375.008 165.47 375.898C165.711 376.679 166.206 377.357 166.876 377.824C167.588 378.276 168.424 378.492 169.265 378.441H171.942H177.508L220.13 378.653L292.298 379.096L340.948 379.481L354.18 379.635H357.628H358.783H357.628H354.18H340.948H292.298L220.092 379.558L177.469 379.404H169.091C168.05 379.466 167.016 379.189 166.145 378.614C165.268 378.007 164.629 377.116 164.334 376.091C164.162 375.112 164.11 374.116 164.18 373.125C164.18 371.199 164.18 369.273 164.18 367.347C164.18 363.495 164.18 359.643 164.18 355.791C164.18 353.865 164.18 351.939 164.18 350.013C164.321 348.912 164.858 347.899 165.691 347.165C166.524 346.432 167.596 346.027 168.706 346.026L329.238 346.912L356.953 347.124C357.986 347.061 359.021 347.132 360.035 347.336C361.036 347.663 361.88 348.349 362.404 349.262C362.902 350.11 363.118 351.095 363.02 352.074C363.02 352.979 363.02 353.865 363.02 354.751C363.02 358.237 363.02 361.434 363.02 364.381C363.02 367.328 363.02 369.812 363.02 372.085C363.02 373.183 363.02 374.204 363.02 375.147C363.09 376.009 362.952 376.874 362.616 377.67C362.366 378.202 362.004 378.673 361.556 379.052C361.107 379.431 360.582 379.709 360.016 379.866C359.595 379.901 359.171 379.862 358.764 379.75Z" fill="#E0E0E0"/>
<path d="M214.092 410.465L164.556 410.241L164.515 419.331L214.051 419.556L214.092 410.465Z" fill="#44C0A5"/>
<path opacity="0.1" d="M214.092 410.465L164.556 410.241L164.515 419.331L214.051 419.556L214.092 410.465Z" fill="black"/>
<path d="M358.379 466.247C358.768 466.201 359.154 466.13 359.534 466.035C360.07 465.865 360.563 465.583 360.981 465.208C361.4 464.833 361.734 464.373 361.961 463.859C362.263 463.081 362.381 462.244 362.308 461.413C362.308 460.469 362.308 459.487 362.308 458.351C362.308 456.136 362.308 453.574 362.308 450.647V438.416C362.4 437.531 362.204 436.639 361.749 435.874C361.263 435.103 360.519 434.53 359.65 434.256C358.691 434.078 357.714 434.02 356.741 434.083H329.026L168.494 433.486C167.631 433.488 166.797 433.803 166.149 434.374C165.501 434.944 165.082 435.731 164.97 436.587C164.97 438.513 164.97 440.439 164.97 442.365C164.97 446.217 164.97 450.069 164.97 453.921C164.97 455.847 164.97 457.773 164.97 459.699C164.898 460.592 164.937 461.492 165.085 462.376C165.316 463.162 165.813 463.843 166.491 464.302C167.198 464.764 168.037 464.98 168.879 464.918H177.258L219.88 465.149L292.047 465.592L340.698 465.978L353.929 466.132H357.377C358.147 466.132 358.533 466.132 358.533 466.132C358.533 466.132 358.147 466.132 357.377 466.132H353.929H340.698H292.047L219.88 465.92L177.258 465.746H168.879C167.837 465.817 166.8 465.539 165.933 464.957C165.056 464.35 164.417 463.458 164.122 462.434C163.95 461.455 163.898 460.459 163.968 459.468C163.968 457.542 163.968 455.616 163.968 453.69C163.968 449.838 163.968 445.986 163.968 442.134C163.968 440.208 163.968 438.282 163.968 436.259C164.104 435.16 164.637 434.148 165.467 433.413C166.297 432.679 167.367 432.273 168.475 432.272L329.007 433.158L356.722 433.37C357.754 433.307 358.79 433.378 359.804 433.582C360.804 433.909 361.648 434.595 362.173 435.508C362.671 436.356 362.887 437.341 362.789 438.32C362.789 439.225 362.789 440.131 362.789 440.997C362.789 444.483 362.789 447.68 362.789 450.627C362.789 453.574 362.789 456.059 362.789 458.331C362.789 459.429 362.789 460.45 362.789 461.394C362.863 462.255 362.724 463.122 362.385 463.917C362.135 464.448 361.773 464.919 361.324 465.298C360.876 465.677 360.35 465.955 359.785 466.112C359.333 466.267 358.851 466.313 358.379 466.247Z" fill="#E0E0E0"/>
<path d="M268.811 359.078L178.213 358.667L178.175 367.161L268.773 367.572L268.811 359.078Z" fill="#44C0A5"/>
<path opacity="0.2" d="M268.811 359.078L178.213 358.667L178.175 367.161L268.773 367.572L268.811 359.078Z" fill="white"/>
<path d="M186.406 450.531C186.349 451.306 186.066 452.047 185.592 452.662C185.118 453.277 184.474 453.74 183.739 453.993C183.004 454.245 182.212 454.277 181.46 454.083C180.707 453.889 180.028 453.479 179.507 452.903C178.986 452.327 178.645 451.611 178.527 450.843C178.41 450.075 178.52 449.289 178.844 448.584C179.168 447.878 179.693 447.283 180.352 446.872C181.012 446.462 181.777 446.254 182.554 446.274C183.627 446.334 184.633 446.815 185.354 447.612C186.075 448.408 186.453 449.457 186.406 450.531Z" fill="#44C0A5"/>
<path d="M198.675 450.589C198.713 451.132 198.638 451.677 198.457 452.19C198.275 452.703 197.99 453.173 197.618 453.571C197.247 453.969 196.798 454.286 196.299 454.504C195.8 454.721 195.261 454.833 194.717 454.833C194.172 454.833 193.634 454.721 193.135 454.504C192.636 454.286 192.187 453.969 191.815 453.571C191.444 453.173 191.159 452.703 190.977 452.19C190.795 451.677 190.721 451.132 190.759 450.589C190.721 450.046 190.795 449.501 190.977 448.988C191.159 448.475 191.444 448.004 191.815 447.606C192.187 447.208 192.636 446.891 193.135 446.674C193.634 446.457 194.172 446.345 194.717 446.345C195.261 446.345 195.8 446.457 196.299 446.674C196.798 446.891 197.247 447.208 197.618 447.606C197.99 448.004 198.275 448.475 198.457 448.988C198.638 449.501 198.713 450.046 198.675 450.589Z" fill="#44C0A5"/>
<path d="M210.963 450.646C210.906 451.421 210.623 452.162 210.149 452.778C209.675 453.393 209.03 453.856 208.296 454.108C207.561 454.361 206.768 454.392 206.016 454.198C205.264 454.005 204.585 453.594 204.064 453.018C203.543 452.442 203.202 451.726 203.084 450.958C202.966 450.19 203.076 449.405 203.401 448.699C203.725 447.993 204.25 447.398 204.909 446.988C205.569 446.577 206.334 446.369 207.111 446.39C208.182 446.455 209.185 446.936 209.905 447.732C210.625 448.528 211.005 449.574 210.963 450.646Z" fill="#44C0A5"/>
<path d="M223.231 450.704C223.174 451.479 222.891 452.22 222.417 452.835C221.943 453.451 221.299 453.913 220.564 454.166C219.83 454.418 219.037 454.45 218.285 454.256C217.533 454.062 216.854 453.652 216.332 453.076C215.811 452.5 215.47 451.784 215.353 451.016C215.235 450.248 215.345 449.463 215.669 448.757C215.994 448.051 216.518 447.456 217.178 447.046C217.837 446.635 218.603 446.427 219.379 446.448C220.45 446.512 221.454 446.994 222.174 447.79C222.894 448.586 223.273 449.632 223.231 450.704Z" fill="#44C0A5"/>
<path d="M235.5 450.743C235.446 451.519 235.166 452.262 234.694 452.88C234.222 453.498 233.579 453.964 232.845 454.219C232.11 454.475 231.317 454.509 230.563 454.317C229.809 454.125 229.129 453.716 228.606 453.141C228.082 452.565 227.74 451.849 227.621 451.08C227.501 450.312 227.611 449.525 227.935 448.818C228.259 448.111 228.784 447.515 229.444 447.104C230.104 446.693 230.87 446.485 231.648 446.506C232.715 446.57 233.716 447.049 234.435 447.841C235.155 448.632 235.537 449.674 235.5 450.743Z" fill="#44C0A5"/>
<path d="M247.788 450.801C247.735 451.572 247.458 452.312 246.991 452.929C246.523 453.545 245.886 454.011 245.156 454.27C244.427 454.529 243.639 454.569 242.887 454.385C242.136 454.201 241.454 453.802 240.927 453.236C240.399 452.67 240.049 451.962 239.919 451.199C239.788 450.437 239.884 449.653 240.193 448.944C240.503 448.235 241.013 447.631 241.661 447.209C242.308 446.786 243.066 446.561 243.839 446.563C244.924 446.604 245.949 447.072 246.689 447.866C247.429 448.661 247.824 449.716 247.788 450.801Z" fill="#44C0A5"/>
<path d="M260.056 450.858C260.094 451.401 260.02 451.946 259.838 452.459C259.656 452.973 259.371 453.443 259 453.841C258.629 454.239 258.179 454.556 257.68 454.773C257.181 454.99 256.643 455.102 256.098 455.102C255.554 455.102 255.016 454.99 254.516 454.773C254.017 454.556 253.568 454.239 253.197 453.841C252.826 453.443 252.54 452.973 252.359 452.459C252.177 451.946 252.103 451.401 252.14 450.858C252.103 450.315 252.177 449.77 252.359 449.257C252.54 448.744 252.826 448.274 253.197 447.876C253.568 447.478 254.017 447.161 254.516 446.944C255.016 446.727 255.554 446.615 256.098 446.615C256.643 446.615 257.181 446.727 257.68 446.944C258.179 447.161 258.629 447.478 259 447.876C259.371 448.274 259.656 448.744 259.838 449.257C260.02 449.77 260.094 450.315 260.056 450.858Z" fill="#44C0A5"/>
<path d="M272.325 450.916C272.273 451.688 271.995 452.428 271.528 453.044C271.06 453.661 270.423 454.127 269.694 454.386C268.965 454.644 268.176 454.684 267.424 454.501C266.673 454.317 265.991 453.917 265.464 453.351C264.937 452.785 264.586 452.077 264.456 451.315C264.326 450.552 264.421 449.768 264.731 449.059C265.04 448.35 265.55 447.747 266.198 447.324C266.846 446.901 267.603 446.677 268.377 446.679C269.462 446.719 270.486 447.188 271.226 447.982C271.966 448.776 272.361 449.831 272.325 450.916Z" fill="#44C0A5"/>
<path d="M284.593 450.974C284.54 451.75 284.26 452.493 283.788 453.111C283.316 453.729 282.673 454.195 281.938 454.45C281.204 454.706 280.411 454.74 279.657 454.548C278.903 454.356 278.222 453.947 277.699 453.372C277.176 452.796 276.834 452.08 276.714 451.311C276.595 450.543 276.704 449.756 277.029 449.049C277.353 448.342 277.877 447.746 278.537 447.335C279.198 446.924 279.964 446.716 280.741 446.737C281.809 446.801 282.809 447.281 283.529 448.072C284.249 448.864 284.63 449.905 284.593 450.974Z" fill="#44C0A5"/>
<g opacity="0.2">
<path opacity="0.2" d="M186.406 450.531C186.349 451.306 186.066 452.047 185.592 452.662C185.118 453.277 184.474 453.74 183.739 453.993C183.004 454.245 182.212 454.277 181.46 454.083C180.707 453.889 180.028 453.479 179.507 452.903C178.986 452.327 178.645 451.611 178.527 450.843C178.41 450.075 178.52 449.289 178.844 448.584C179.168 447.878 179.693 447.283 180.352 446.872C181.012 446.462 181.777 446.254 182.554 446.274C183.627 446.334 184.633 446.815 185.354 447.612C186.075 448.408 186.453 449.457 186.406 450.531Z" fill="white"/>
<path opacity="0.2" d="M198.675 450.589C198.712 451.132 198.638 451.677 198.456 452.19C198.275 452.703 197.989 453.173 197.618 453.571C197.247 453.969 196.798 454.286 196.299 454.504C195.799 454.721 195.261 454.833 194.717 454.833C194.172 454.833 193.634 454.721 193.135 454.504C192.635 454.286 192.186 453.969 191.815 453.571C191.444 453.173 191.158 452.703 190.977 452.19C190.795 451.677 190.721 451.132 190.759 450.589C190.721 450.046 190.795 449.501 190.977 448.988C191.158 448.475 191.444 448.004 191.815 447.606C192.186 447.208 192.635 446.891 193.135 446.674C193.634 446.457 194.172 446.345 194.717 446.345C195.261 446.345 195.799 446.457 196.299 446.674C196.798 446.891 197.247 447.208 197.618 447.606C197.989 448.004 198.275 448.475 198.456 448.988C198.638 449.501 198.712 450.046 198.675 450.589Z" fill="white"/>
<path opacity="0.2" d="M210.962 450.646C210.905 451.421 210.622 452.162 210.148 452.778C209.674 453.393 209.03 453.856 208.295 454.108C207.561 454.361 206.768 454.392 206.016 454.198C205.264 454.005 204.585 453.594 204.064 453.018C203.542 452.442 203.202 451.726 203.084 450.958C202.966 450.19 203.076 449.405 203.4 448.699C203.725 447.993 204.249 447.398 204.909 446.988C205.568 446.577 206.334 446.369 207.11 446.39C208.182 446.455 209.185 446.936 209.905 447.732C210.625 448.528 211.005 449.574 210.962 450.646Z" fill="white"/>
<path opacity="0.2" d="M223.231 450.704C223.174 451.479 222.891 452.22 222.417 452.835C221.943 453.451 221.299 453.913 220.564 454.166C219.83 454.418 219.037 454.45 218.285 454.256C217.533 454.062 216.854 453.652 216.332 453.076C215.811 452.5 215.47 451.784 215.353 451.016C215.235 450.248 215.345 449.463 215.669 448.757C215.994 448.051 216.518 447.456 217.178 447.046C217.837 446.635 218.603 446.427 219.379 446.448C220.45 446.512 221.454 446.994 222.174 447.79C222.894 448.586 223.273 449.632 223.231 450.704Z" fill="white"/>
<path opacity="0.2" d="M235.5 450.743C235.446 451.519 235.166 452.262 234.694 452.88C234.222 453.498 233.579 453.964 232.845 454.219C232.11 454.475 231.317 454.509 230.563 454.317C229.809 454.125 229.129 453.716 228.606 453.141C228.082 452.565 227.74 451.849 227.621 451.08C227.501 450.312 227.611 449.525 227.935 448.818C228.259 448.111 228.784 447.515 229.444 447.104C230.104 446.693 230.87 446.485 231.648 446.506C232.715 446.57 233.716 447.049 234.435 447.841C235.155 448.632 235.537 449.674 235.5 450.743Z" fill="white"/>
<path opacity="0.2" d="M247.788 450.801C247.735 451.572 247.458 452.312 246.99 452.928C246.523 453.545 245.885 454.011 245.156 454.27C244.427 454.529 243.638 454.569 242.887 454.385C242.135 454.201 241.454 453.802 240.926 453.236C240.399 452.67 240.049 451.962 239.918 451.199C239.788 450.437 239.883 449.653 240.193 448.944C240.503 448.235 241.013 447.631 241.66 447.209C242.308 446.786 243.066 446.561 243.839 446.563C244.924 446.604 245.949 447.072 246.689 447.866C247.429 448.661 247.824 449.716 247.788 450.801Z" fill="white"/>
<path opacity="0.2" d="M260.056 450.858C260.094 451.401 260.02 451.946 259.838 452.459C259.656 452.972 259.371 453.443 259 453.841C258.629 454.239 258.179 454.556 257.68 454.773C257.181 454.99 256.643 455.102 256.098 455.102C255.554 455.102 255.016 454.99 254.516 454.773C254.017 454.556 253.568 454.239 253.197 453.841C252.826 453.443 252.54 452.972 252.359 452.459C252.177 451.946 252.103 451.401 252.14 450.858C252.103 450.315 252.177 449.77 252.359 449.257C252.54 448.744 252.826 448.274 253.197 447.876C253.568 447.478 254.017 447.161 254.516 446.944C255.016 446.727 255.554 446.615 256.098 446.615C256.643 446.615 257.181 446.727 257.68 446.944C258.179 447.161 258.629 447.478 259 447.876C259.371 448.274 259.656 448.744 259.838 449.257C260.02 449.77 260.094 450.315 260.056 450.858Z" fill="white"/>
<path opacity="0.2" d="M272.325 450.916C272.272 451.688 271.995 452.428 271.527 453.044C271.06 453.661 270.422 454.127 269.693 454.386C268.964 454.644 268.175 454.684 267.424 454.501C266.672 454.317 265.991 453.917 265.464 453.351C264.936 452.785 264.586 452.077 264.455 451.315C264.325 450.552 264.421 449.768 264.73 449.059C265.04 448.35 265.55 447.747 266.197 447.324C266.845 446.901 267.603 446.677 268.376 446.679C269.461 446.719 270.486 447.188 271.226 447.982C271.966 448.776 272.361 449.831 272.325 450.916Z" fill="white"/>
<path opacity="0.2" d="M284.593 450.974C284.54 451.75 284.26 452.493 283.788 453.111C283.316 453.729 282.673 454.195 281.938 454.45C281.204 454.706 280.411 454.74 279.657 454.548C278.903 454.356 278.222 453.947 277.699 453.372C277.176 452.796 276.834 452.08 276.714 451.311C276.595 450.543 276.704 449.756 277.029 449.049C277.353 448.342 277.877 447.746 278.537 447.335C279.198 446.924 279.964 446.716 280.741 446.737C281.809 446.801 282.809 447.281 283.529 448.072C284.249 448.864 284.63 449.905 284.593 450.974Z" fill="white"/>
</g>
<path d="M267.163 172.937C268.501 172.347 269.636 171.378 270.427 170.148C271.218 168.919 271.63 167.484 271.612 166.022C271.662 165.072 271.518 164.121 271.188 163.229C270.859 162.336 270.352 161.52 269.697 160.829C269.042 160.139 268.253 159.589 267.379 159.214C266.504 158.838 265.563 158.644 264.611 158.644C263.659 158.644 262.718 158.838 261.843 159.214C260.969 159.589 260.181 160.139 259.526 160.829C258.87 161.52 258.363 162.336 258.034 163.229C257.704 164.121 257.56 165.072 257.61 166.022C257.581 167.499 257.989 168.951 258.785 170.195C259.58 171.439 260.726 172.42 262.078 173.014C251.293 174.631 251.774 186.342 251.774 186.342L277.275 186.457C277.275 186.457 277.872 174.535 267.163 172.937Z" fill="#44C0A5"/>
<path opacity="0.1" d="M267.163 172.937C268.501 172.347 269.636 171.378 270.427 170.148C271.218 168.919 271.63 167.484 271.612 166.022C271.662 165.072 271.518 164.121 271.188 163.229C270.859 162.336 270.352 161.52 269.697 160.829C269.042 160.139 268.253 159.589 267.379 159.214C266.504 158.838 265.563 158.644 264.611 158.644C263.659 158.644 262.718 158.838 261.843 159.214C260.969 159.589 260.181 160.139 259.526 160.829C258.87 161.52 258.363 162.336 258.034 163.229C257.704 164.121 257.56 165.072 257.61 166.022C257.581 167.499 257.989 168.951 258.785 170.195C259.58 171.439 260.726 172.42 262.078 173.014C251.293 174.631 251.774 186.342 251.774 186.342L277.275 186.457C277.275 186.457 277.872 174.535 267.163 172.937Z" fill="black"/>
<path d="M308.6 194.01L217.713 193.597L217.664 204.46L308.551 204.872L308.6 194.01Z" fill="#44C0A5"/>
<path opacity="0.2" d="M308.6 194.01L217.713 193.597L217.664 204.46L308.551 204.872L308.6 194.01Z" fill="white"/>
<path d="M54.0332 194H53.046L50.1895 194.21C48.6436 194.303 47.1063 194.507 45.5896 194.819C44.6071 194.957 43.6326 195.147 42.67 195.386L39.4144 196.29C33.8731 197.99 28.645 200.579 23.9344 203.956C17.7106 208.474 12.5137 214.257 8.68541 220.927C6.43531 224.772 4.64469 228.868 3.35037 233.131C1.99034 237.764 1.20729 242.547 1.01894 247.371C0.893759 249.906 0.935853 252.446 1.14496 254.975C1.14496 256.256 1.50203 257.537 1.67006 258.84C1.81139 260.152 2.05722 261.452 2.4052 262.725C4.29393 271.154 8.12622 279.024 13.5964 285.709C19.0665 292.393 26.0232 297.707 33.9113 301.226C39.6204 303.689 45.7396 305.064 51.9538 305.28C58.3721 305.633 64.7967 304.712 70.8574 302.57L72.7058 301.877H72.9579L73.1679 302.003L99.654 315.446L98.8769 316.118C96.0413 307.338 93.3108 298.831 90.6643 290.661V290.346L90.8953 290.115C97.3205 283.643 102.09 275.718 104.8 267.01C107.254 259.05 107.971 250.655 106.9 242.394C105.948 235.052 103.588 227.962 99.9481 221.515C96.8107 215.977 92.7634 211.007 87.9758 206.813C84.0259 203.493 79.6541 200.71 74.9743 198.537C71.4332 197.01 67.7453 195.849 63.9681 195.071L59.7673 194.378L56.7217 194.147L54.8734 194.021H54.2432C54.4526 193.998 54.664 193.998 54.8734 194.021H56.7427L59.7883 194.147L63.9891 194.756C67.8134 195.477 71.5515 196.596 75.1423 198.096C79.9025 200.243 84.3531 203.019 88.3749 206.351C93.2504 210.526 97.3836 215.498 100.599 221.053C104.342 227.57 106.775 234.755 107.762 242.205C108.921 250.593 108.254 259.134 105.808 267.241C103.081 276.13 98.2372 284.224 91.6935 290.829L91.8195 290.283C94.466 298.453 97.2176 306.96 100.074 315.719L100.473 317L99.2759 316.391L72.7898 302.969H73.2519L71.3616 303.662C65.1841 305.836 58.6406 306.778 52.1008 306.435C45.7527 306.193 39.5055 304.769 33.6803 302.234C22.5685 297.475 13.3236 289.204 7.36216 278.689C4.61884 273.832 2.61541 268.593 1.418 263.146C1.0901 261.839 0.844578 260.513 0.682865 259.176C0.514833 257.853 0.241784 256.55 0.178772 255.248C-0.389686 247.774 0.400215 240.26 2.51022 233.068C3.83676 228.746 5.67729 224.6 7.99229 220.717C11.9119 213.987 17.2171 208.166 23.5563 203.641C28.3445 200.255 33.6604 197.686 39.2883 196.038L42.586 195.197C43.5566 194.972 44.538 194.797 45.5265 194.672C47.0591 194.389 48.6107 194.22 50.1684 194.168L53.046 194.063C53.3732 194.019 53.7031 193.998 54.0332 194Z" fill="#44C0A5"/>
<path d="M66.0056 242.982H62.1198L53.7182 231.177V223.427C53.7182 223.427 47.711 223.049 48.4252 233.194C49.1393 243.339 48.4252 240.755 48.4252 240.755C48.4252 240.755 35.6757 240.755 34.6255 241.91C33.5753 243.066 33.5122 255.374 33.3652 262.242C33.2847 263.898 33.7598 265.533 34.715 266.888C35.6702 268.243 37.0507 269.239 38.6373 269.72C39.082 269.843 39.5411 269.907 40.0025 269.909C43.1951 269.909 59.4313 267.325 59.4313 267.325H66.1316L66.0056 242.982Z" fill="#44C0A5"/>
<path d="M77.1167 240.902L74.7223 267.451H68.085V241.448L77.1167 240.902Z" fill="#44C0A5"/>
</svg>
